<svg width="120" height="120" viewBox="0 0 120 120" fill="none" xmlns="http://www.w3.org/2000/svg">
  <!-- Blue R shape - more accurate to user's design -->
  <path d="M25 20 
           C25 15, 30 10, 35 10 
           L75 10 
           C85 10, 95 20, 95 30
           C95 40, 85 50, 75 50
           L85 50
           C90 52, 95 57, 95 65
           L95 90
           C95 95, 90 100, 85 100
           L75 100
           C70 100, 65 95, 65 90
           L65 70
           L55 70
           L55 90
           C55 95, 50 100, 45 100
           L35 100
           C30 100, 25 95, 25 90
           Z
           M45 30
           L45 50
           L75 50
           C80 50, 85 45, 85 40
           C85 35, 80 30, 75 30
           Z" 
        fill="#2563eb" 
        stroke="none"/>
</svg> 
  <!-- Blue R shape - more accurate to user's design -->
  <path d="M25 20 
           C25 15, 30 10, 35 10 
           L75 10 
           C85 10, 95 20, 95 30
           C95 40, 85 50, 75 50
           L85 50
           C90 52, 95 57, 95 65
           L95 90
           C95 95, 90 100, 85 100
           L75 100
           C70 100, 65 95, 65 90
           L65 70
           L55 70
           L55 90
           C55 95, 50 100, 45 100
           L35 100
           C30 100, 25 95, 25 90
           Z
           M45 30
           L45 50
           L75 50
           C80 50, 85 45, 85 40
           C85 35, 80 30, 75 30
           Z" 
        fill="#2563eb" 
        stroke="none"/>
</svg> 
  <!-- Blue R shape - more accurate to user's design -->
  <path d="M25 20 
           C25 15, 30 10, 35 10 
           L75 10 
           C85 10, 95 20, 95 30
           C95 40, 85 50, 75 50
           L85 50
           C90 52, 95 57, 95 65
           L95 90
           C95 95, 90 100, 85 100
           L75 100
           C70 100, 65 95, 65 90
           L65 70
           L55 70
           L55 90
           C55 95, 50 100, 45 100
           L35 100
           C30 100, 25 95, 25 90
           Z
           M45 30
           L45 50
           L75 50
           C80 50, 85 45, 85 40
           C85 35, 80 30, 75 30
           Z" 
        fill="#2563eb" 
        stroke="none"/>
</svg> 